<svg width="38" height="40" viewBox="0 0 38 40" fill="none" xmlns="http://www.w3.org/2000/svg">
<g clip-path="url(#clip0_0_5291)">
<g filter="url(#filter0_d_0_5291)">
<rect y="0.0839844" width="38" height="39" rx="19" fill="white"/>
</g>
<g clip-path="url(#clip1_0_5291)">
<path fill-rule="evenodd" clip-rule="evenodd" d="M23.0601 9.60156H15.2303C12.0482 9.60156 9.45935 12.1904 9.45935 15.3725V23.2023C9.45935 26.3844 12.0482 28.9733 15.2303 28.9733H23.0601C26.2422 28.9733 28.8311 26.3844 28.8311 23.2023V15.3725C28.831 12.1904 26.2422 9.60156 23.0601 9.60156ZM26.8823 23.2023C26.8823 25.3132 25.171 27.0245 23.0601 27.0245H15.2303C13.1194 27.0245 11.4082 25.3132 11.4082 23.2023V15.3725C11.4082 13.2616 13.1194 11.5504 15.2303 11.5504H23.0601C25.171 11.5504 26.8823 13.2616 26.8823 15.3725V23.2023Z" fill="url(#paint0_linear_0_5291)"/>
<path fill-rule="evenodd" clip-rule="evenodd" d="M19.1456 14.2773C16.383 14.2773 14.1354 16.5249 14.1354 19.2875C14.1354 22.0501 16.383 24.2978 19.1456 24.2978C21.9082 24.2978 24.1558 22.0502 24.1558 19.2875C24.1558 16.5249 21.9082 14.2773 19.1456 14.2773ZM19.1456 22.349C17.4548 22.349 16.0842 20.9784 16.0842 19.2876C16.0842 17.5968 17.4549 16.2261 19.1456 16.2261C20.8364 16.2261 22.207 17.5968 22.207 19.2876C22.207 20.9783 20.8364 22.349 19.1456 22.349Z" fill="url(#paint1_linear_0_5291)"/>
<circle cx="24.1651" cy="14.3148" r="1.20055" fill="url(#paint2_linear_0_5291)"/>
</g>
</g>
<defs>
<filter id="filter0_d_0_5291" x="-6" y="-2.91602" width="50" height="51" filterUnits="userSpaceOnUse" color-interpolation-filters="sRGB">
<feFlood flood-opacity="0" result="BackgroundImageFix"/>
<feColorMatrix in="SourceAlpha" type="matrix" values="0 0 0 0 0 0 0 0 0 0 0 0 0 0 0 0 0 0 127 0" result="hardAlpha"/>
<feOffset dy="3"/>
<feGaussianBlur stdDeviation="3"/>
<feColorMatrix type="matrix" values="0 0 0 0 0 0 0 0 0 0 0 0 0 0 0 0 0 0 0.160784 0"/>
<feBlend mode="normal" in2="BackgroundImageFix" result="effect1_dropShadow_0_5291"/>
<feBlend mode="normal" in="SourceGraphic" in2="effect1_dropShadow_0_5291" result="shape"/>
</filter>
<linearGradient id="paint0_linear_0_5291" x1="9.56278" y1="9.76222" x2="9.56278" y2="28.9271" gradientUnits="userSpaceOnUse">
<stop stop-color="#E09B3D"/>
<stop offset="0.3" stop-color="#C74C4D"/>
<stop offset="0.6" stop-color="#C21975"/>
<stop offset="1" stop-color="#7024C4"/>
</linearGradient>
<linearGradient id="paint1_linear_0_5291" x1="9.56312" y1="9.76235" x2="9.56312" y2="28.9272" gradientUnits="userSpaceOnUse">
<stop stop-color="#E09B3D"/>
<stop offset="0.3" stop-color="#C74C4D"/>
<stop offset="0.6" stop-color="#C21975"/>
<stop offset="1" stop-color="#7024C4"/>
</linearGradient>
<linearGradient id="paint2_linear_0_5291" x1="14.5827" y1="9.76221" x2="14.5827" y2="28.9271" gradientUnits="userSpaceOnUse">
<stop stop-color="#E09B3D"/>
<stop offset="0.3" stop-color="#C74C4D"/>
<stop offset="0.6" stop-color="#C21975"/>
<stop offset="1" stop-color="#7024C4"/>
</linearGradient>
<clipPath id="clip0_0_5291">
<rect width="38" height="39" fill="white" transform="translate(0 0.0839844)"/>
</clipPath>
<clipPath id="clip1_0_5291">
<rect width="19.3717" height="19.3717" fill="white" transform="translate(9.45935 9.60156)"/>
</clipPath>
</defs>
</svg>
