<svg width="182" height="23" viewBox="0 0 182 23" fill="none" xmlns="http://www.w3.org/2000/svg">
<path d="M0.736 22H6.812V9.848L10.966 22H16.05L20.173 9.941V22H26.249V0.144999H18.933L13.57 14.343L8.083 0.144999H0.736V22ZM43.6887 0.144999H29.7077V22H43.6887V17.133H35.7837V13.196H42.7587V8.577H35.7837V5.012H43.6887V0.144999ZM45.4821 4.981H51.2481V22H57.3241V4.981H63.1521V0.144999H45.4821V4.981ZM80.4041 22H86.8211L78.8851 0.144999H71.8791L63.9121 22H70.2981L71.4761 18.435H79.2261L80.4041 22ZM77.7071 13.785H73.0261L75.3511 6.717L77.7071 13.785ZM97.649 10.902V2.16H102.02C105.678 2.16 107.104 3.772 107.104 6.562C107.104 9.228 105.678 10.902 102.02 10.902H97.649ZM109.336 6.562C109.336 2.997 107.042 0.330998 102.02 0.330998H95.479V22H97.649V12.762H102.02C107.104 12.762 109.336 10.065 109.336 6.562ZM112.977 0.330998V22H122.928V20.233H115.147V0.330998H112.977ZM140.471 22H142.765L134.891 0.609998H132.442L124.537 22H126.831L128.722 16.854H138.58L140.471 22ZM137.929 15.056H129.373L133.651 3.338L137.929 15.056ZM145.256 11.15C145.256 17.66 149.844 22.186 155.858 22.186C160.694 22.186 164.29 19.768 165.84 15.676H163.298C162.089 18.497 159.547 20.295 155.858 20.295C151.115 20.295 147.488 16.792 147.488 11.15C147.488 5.477 151.115 1.974 155.858 1.974C159.547 1.974 162.089 3.772 163.298 6.655H165.84C164.29 2.501 160.694 0.0829995 155.858 0.0829995C149.844 0.0829995 145.256 4.64 145.256 11.15ZM181.479 0.299999H170.164V22H181.479V20.202H172.334V11.987H180.549V10.189H172.334V2.098H181.479V0.299999Z" fill="white"/>
</svg>
